<?xml version="1.0" encoding="UTF-8" standalone="no"?>
<svg
   xmlns:dc="http://purl.org/dc/elements/1.1/"
   xmlns:cc="http://creativecommons.org/ns#"
   xmlns:rdf="http://www.w3.org/1999/02/22-rdf-syntax-ns#"
   xmlns:svg="http://www.w3.org/2000/svg"
   xmlns="http://www.w3.org/2000/svg"
   xmlns:sodipodi="http://sodipodi.sourceforge.net/DTD/sodipodi-0.dtd"
   xmlns:inkscape="http://www.inkscape.org/namespaces/inkscape"
   version="1.1"
   viewBox="0 0 1400 2100"
   id="svg70"
   sodipodi:docname="cover.svg"
   inkscape:version="0.92.2 5c3e80d, 2017-08-06">
  <title
     id="title199">Erzählungen vom Oberharz in Oberharzer Mundart</title>
  <metadata
     id="metadata76">
    <rdf:RDF>
      <cc:Work
         rdf:about="">
        <dc:format>image/svg+xml</dc:format>
        <dc:type
           rdf:resource="http://purl.org/dc/dcmitype/StillImage" />
        <dc:title>Erzählungen vom Oberharz in Oberharzer Mundart</dc:title>
        <cc:license
           rdf:resource="http://creativecommons.org/publicdomain/zero/1.0/" />
        <dc:creator>
          <cc:Agent>
            <dc:title>Louis Kühnhold</dc:title>
          </cc:Agent>
        </dc:creator>
      </cc:Work>
      <cc:License
         rdf:about="http://creativecommons.org/publicdomain/zero/1.0/">
        <cc:permits
           rdf:resource="http://creativecommons.org/ns#Reproduction" />
        <cc:permits
           rdf:resource="http://creativecommons.org/ns#Distribution" />
        <cc:permits
           rdf:resource="http://creativecommons.org/ns#DerivativeWorks" />
      </cc:License>
    </rdf:RDF>
  </metadata>
  <defs
     id="defs74" />
  <sodipodi:namedview
     pagecolor="#ffffff"
     bordercolor="#666666"
     borderopacity="1"
     objecttolerance="10"
     gridtolerance="10"
     guidetolerance="10"
     inkscape:pageopacity="0"
     inkscape:pageshadow="2"
     inkscape:window-width="1440"
     inkscape:window-height="855"
     id="namedview72"
     showgrid="false"
     inkscape:zoom="0.30571429"
     inkscape:cx="700"
     inkscape:cy="1050"
     inkscape:window-x="0"
     inkscape:window-y="1"
     inkscape:window-maximized="1"
     inkscape:current-layer="svg70" />
  <style
     type="text/css"
     id="style4">
		path{
			fill: #fff;
		}

		.title-box{
			fill: #000;
			fill-opacity: .75;
		}
	</style>
  <text
     xml:space="preserve"
     style="font-style:normal;font-weight:normal;font-size:40px;line-height:1.25;font-family:sans-serif;letter-spacing:0px;word-spacing:0px;fill:#000000;fill-opacity:1;stroke:none"
     x="372.5625"
     y="342.14578"
     id="text80"><tspan
       sodipodi:role="line"
       id="tspan78"
       x="372.5625"
       y="342.14578"
       style="font-style:normal;font-variant:normal;font-weight:normal;font-stretch:normal;font-size:64px;font-family:sans-serif;-inkscape-font-specification:'sans-serif, Normal';font-variant-ligatures:normal;font-variant-caps:normal;font-variant-numeric:normal;font-feature-settings:normal;text-align:start;writing-mode:lr-tb;text-anchor:start">ERZÄHLUNGEN VOM</tspan></text>
  <text
     xml:space="preserve"
     style="font-style:normal;font-weight:normal;font-size:40px;line-height:1.25;font-family:sans-serif;letter-spacing:0px;word-spacing:0px;fill:#000000;fill-opacity:1;stroke:none"
     x="461.22198"
     y="455.9437"
     id="text84"><tspan
       sodipodi:role="line"
       id="tspan82"
       x="461.22198"
       y="455.9437"
       style="font-style:normal;font-variant:normal;font-weight:bold;font-stretch:normal;font-size:77.33333588px;font-family:sans-serif;-inkscape-font-specification:'sans-serif, Bold';font-variant-ligatures:normal;font-variant-caps:normal;font-variant-numeric:normal;font-feature-settings:normal;text-align:start;writing-mode:lr-tb;text-anchor:start">OBERHARZ</tspan></text>
  <text
     xml:space="preserve"
     style="font-style:normal;font-weight:normal;font-size:40px;line-height:1.25;font-family:sans-serif;letter-spacing:0px;word-spacing:0px;fill:#000000;fill-opacity:1;stroke:none"
     x="305.15625"
     y="683.53955"
     id="text88"><tspan
       sodipodi:role="line"
       x="305.15625"
       y="683.53955"
       id="tspan98"
       style="font-style:normal;font-variant:normal;font-weight:normal;font-stretch:normal;font-size:64px;font-family:sans-serif;-inkscape-font-specification:'sans-serif, Normal';font-variant-ligatures:normal;font-variant-caps:normal;font-variant-numeric:normal;font-feature-settings:normal;text-align:start;writing-mode:lr-tb;text-anchor:start">OBERHARZER MUNDART</tspan></text>
  <text
     xml:space="preserve"
     style="font-style:normal;font-weight:normal;font-size:40px;line-height:1.25;font-family:sans-serif;letter-spacing:0px;word-spacing:0px;fill:#000000;fill-opacity:1;stroke:none"
     x="657.74414"
     y="797.33746"
     id="text92"><tspan
       sodipodi:role="line"
       id="tspan90"
       x="657.74414"
       y="797.33746"
       style="font-style:normal;font-variant:normal;font-weight:normal;font-stretch:normal;font-size:40px;font-family:sans-serif;-inkscape-font-specification:'sans-serif, Normal';font-variant-ligatures:normal;font-variant-caps:normal;font-variant-numeric:normal;font-feature-settings:normal;text-align:start;writing-mode:lr-tb;text-anchor:start">VON</tspan></text>
  <text
     xml:space="preserve"
     style="font-style:normal;font-weight:normal;font-size:40px;line-height:1.25;font-family:sans-serif;letter-spacing:0px;word-spacing:0px;fill:#000000;fill-opacity:1;stroke:none"
     x="410.23438"
     y="911.13538"
     id="text96"><tspan
       sodipodi:role="line"
       id="tspan94"
       x="410.23438"
       y="911.13538"
       style="font-style:normal;font-variant:normal;font-weight:normal;font-stretch:normal;font-size:64px;font-family:sans-serif;-inkscape-font-specification:'sans-serif, Normal';font-variant-ligatures:normal;font-variant-caps:normal;font-variant-numeric:normal;font-feature-settings:normal;text-align:start;writing-mode:lr-tb;text-anchor:start">LOUIS KÜHNHOLD</tspan></text>
  <text
     xml:space="preserve"
     style="font-style:normal;font-weight:normal;font-size:40px;line-height:1.25;font-family:sans-serif;letter-spacing:0px;word-spacing:0px;fill:#000000;fill-opacity:1;stroke:none"
     x="679.14062"
     y="569.74164"
     id="text102"><tspan
       sodipodi:role="line"
       id="tspan100"
       x="679.14062"
       y="569.74164">IN</tspan></text>
  <g
     id="layer1"
     transform="matrix(8.7598693,0,0,8.7598693,-1575.0322,-1974.847)">
    <path
       style="fill:#000000"
       d="m 271.92886,424.57401 c -0.10343,-0.10342 -7.6279,-0.16367 -16.72106,-0.13387 -9.09316,0.0298 -16.47631,-0.002 -16.40701,-0.0718 0.2863,-0.2863 3.09575,-0.49776 14.36118,-1.08092 4.82446,-0.24974 7.31947,-0.24656 9.9,0.0126 5.83647,0.58619 22.92668,1.21773 18.675,0.6901 -0.53625,-0.0665 -0.975,-0.23211 -0.975,-0.36792 0,-0.25404 2.66053,-0.75453 2.87435,-0.54071 0.0657,0.0657 -0.048,0.48298 -0.25249,0.92739 l -0.37186,0.80804 -5.44753,-0.0274 c -2.99614,-0.0151 -5.53216,-0.11204 -5.63558,-0.21547 z m -36.1623,-0.85059 c 0.003,-0.14646 0.12724,-0.46012 0.27714,-0.69701 0.21738,-0.34354 0.36209,-0.35639 0.71497,-0.0635 0.31086,0.25799 1.05366,0.30696 2.49786,0.16468 1.96851,-0.19392 2.64544,0.0505 0.8304,0.29983 -3.41614,0.46929 -4.32443,0.53152 -4.32037,0.29602 z m 39.89541,-0.72841 c -1.2375,-0.13915 -4.14,-0.40069 -6.45,-0.58121 -5.15951,-0.40318 -7.95142,-0.86548 -7.94558,-1.31565 0.002,-0.18756 0.17847,-0.67853 0.39119,-1.09103 0.25642,-0.49725 0.31228,-1.15964 0.16574,-1.96555 -0.58538,-3.21949 -0.76026,-11.70963 -0.562,-27.28445 0.0719,-5.6446 0.004,-7.59244 -0.32215,-9.3 -0.0315,-0.165 -0.1637,0.375 -0.29366,1.2 -0.40873,2.59456 -0.89511,16.07795 -0.97937,27.15 -0.0446,5.8575 -0.19353,10.89365 -0.33101,11.19144 -0.14907,0.32288 -0.50694,0.50826 -0.88656,0.45925 -0.35013,-0.0452 -0.77805,0.006 -0.95093,0.11377 -0.59442,0.37056 -0.97298,-0.21726 -1.07922,-1.67578 -0.0944,-1.29634 -0.029,-1.49048 0.58004,-1.71959 0.72479,-0.27267 0.7063,-0.29479 1.15368,1.38091 0.1941,0.72706 0.28754,0.38118 0.48627,-1.8 0.26041,-2.85815 0.27533,-7.99751 0.024,-8.25 -0.0821,-0.0825 -1.34141,-0.15 -2.7984,-0.15 -2.97208,0 -3.10098,-0.27921 -0.54475,-1.17994 0.92867,-0.32724 1.99877,-0.9952 2.56657,-1.60208 0.97158,-1.03843 0.97388,-1.04843 0.99981,-4.3296 0.0143,-1.80882 -0.0527,-3.36743 -0.14882,-3.46357 -0.0962,-0.0961 -0.17482,0.11769 -0.17482,0.47519 0,0.3575 -0.15389,0.65 -0.34197,0.65 -0.23486,0 -0.29186,-0.54028 -0.18197,-1.725 0.15153,-1.63369 0.13858,-1.67736 -0.2445,-0.825 -0.22248,0.495 -0.41059,1.66828 -0.41803,2.60729 -0.007,0.93902 -0.13209,1.78058 -0.27701,1.87014 -0.28158,0.17402 -0.63355,-1.19292 -0.64111,-2.48993 -0.004,-0.61863 -0.067,-0.691 -0.29541,-0.3375 -0.15995,0.2475 -0.30144,1.3275 -0.31442,2.4 -0.0189,1.55791 -0.0814,1.80556 -0.31097,1.23163 -0.3454,-0.86347 -0.43536,-3.40189 -0.1408,-3.97308 0.11588,-0.2247 -0.002,-0.1465 -0.26156,0.17379 -0.25974,0.32029 -0.47225,0.75903 -0.47225,0.975 0,0.21596 -0.18929,0.39266 -0.42065,0.39266 -0.52022,0 -1.07935,1.53065 -1.07935,2.95477 0,0.74791 -0.0944,0.97084 -0.31684,0.74838 -0.17427,-0.17426 -0.32223,-1.01126 -0.3288,-1.85999 -0.007,-0.84874 -0.12466,-1.54316 -0.26242,-1.54316 -0.13776,0 -0.45038,0.84375 -0.69473,1.875 l -0.44425,1.875 -0.0265,-1.425 c -0.0146,-0.78375 -0.15771,-1.425 -0.3181,-1.425 -0.16039,0 -0.50747,0.7425 -0.77129,1.65 -0.26381,0.9075 -0.535,1.65 -0.60264,1.65 -0.0676,0 -0.0357,-0.64125 0.0709,-1.425 0.17455,-1.28299 0.146,-1.38556 -0.28645,-1.02927 -0.26418,0.21765 -0.56689,0.78985 -0.67269,1.27156 -0.1058,0.48171 -0.33144,0.96178 -0.50142,1.06684 -0.19361,0.11966 -0.24102,-0.0472 -0.12692,-0.44656 0.10018,-0.35066 0.25874,-0.90757 0.35236,-1.23757 0.26536,-0.93538 -0.43658,-0.71109 -1.00917,0.32246 -0.28108,0.50735 -0.68725,1.14861 -0.9026,1.425 -0.33416,0.42888 -0.3423,0.40117 -0.0555,-0.18909 0.57362,-1.18075 0.15843,-1.46241 -0.74332,-0.50426 -0.69287,0.73621 -0.77791,0.771 -0.47707,0.19519 0.61426,-1.17568 0.0732,-1.12338 -1.24324,0.12019 -1.06823,1.00909 -1.17286,1.05693 -0.72052,0.32948 0.73703,-1.18528 0.48038,-1.24449 -0.89229,-0.20585 -1.30764,0.98944 -2.18869,1.23021 -1.05897,0.2894 1.02368,-0.85251 0.64389,-0.98058 -0.73796,-0.24885 -0.64875,0.34352 -1.61829,0.73227 -2.15454,0.86387 -1.50125,0.36842 -1.22437,-0.35569 0.45,-1.17683 1.59588,-0.78266 6.72114,-2.67462 7.875,-2.90702 0.88502,-0.17825 5.34058,-2.39464 6.02362,-2.99642 0.26049,-0.2295 0.60162,-0.41727 0.75805,-0.41727 0.15643,0 1.18706,-0.91125 2.29028,-2.025 2.29366,-2.31556 2.9807,-3.78961 2.62602,-5.63419 l -0.22897,-1.19081 -0.0391,1.2 c -0.025,0.76728 -0.12928,1.05778 -0.28919,0.80561 -0.13756,-0.21692 -0.20112,-0.75692 -0.14126,-1.2 0.0943,-0.69808 0.0711,-0.72552 -0.17422,-0.20561 -0.15569,0.33 -0.29463,1.14 -0.30875,1.8 -0.0192,0.89685 -0.10017,1.08632 -0.32055,0.75 -0.16218,-0.2475 -0.21689,-0.82125 -0.12157,-1.275 0.10451,-0.49752 0.0448,-0.825 -0.15053,-0.825 -0.17812,0 -0.33421,0.23625 -0.3469,0.525 -0.0127,0.28875 -0.20759,1.065 -0.43313,1.725 l -0.41008,1.2 0.0459,-1.26222 c 0.0253,-0.69422 -0.04,-1.34813 -0.14499,-1.45313 -0.20542,-0.20543 -0.83022,1.77504 -0.83298,2.64035 -9.3e-4,0.28875 -0.14934,0.525 -0.32982,0.525 -0.21985,0 -0.26582,-0.51981 -0.13928,-1.575 0.1795,-1.4968 0.16653,-1.53776 -0.26122,-0.825 -0.24755,0.4125 -0.45487,1.04271 -0.46072,1.40046 -0.0315,1.92902 -0.90495,1.9355 -0.92126,0.007 -0.0105,-1.24123 -0.0161,-1.24771 -0.43937,-0.5073 -0.23581,0.4125 -0.43559,1.02 -0.44396,1.35 -0.008,0.33 -0.1593,0.8025 -0.33538,1.05 -0.23695,0.33304 -0.27568,0.0756 -0.14903,-0.99047 0.2043,-1.71965 -0.19444,-1.64442 -1.07303,0.20248 l -0.58893,1.23799 0.14162,-1.275 c 0.19934,-1.79469 -0.27301,-1.58468 -0.89846,0.39946 -0.38663,1.22653 -0.5797,1.52747 -0.72174,1.125 -0.10665,-0.30221 -0.0785,-0.95357 0.0625,-1.44748 0.5632,-1.97248 -0.095,-1.64683 -1.1355,0.56179 -0.72252,1.53367 -0.72344,1.53432 -0.54832,0.38993 0.0965,-0.63047 0.25547,-1.35493 0.35331,-1.6099 0.14296,-0.37254 0.0658,-0.40578 -0.39259,-0.16924 -0.31377,0.1619 -0.72742,0.23779 -0.91923,0.16866 -0.19181,-0.0691 -0.59681,0.22543 -0.9,0.6546 -0.30319,0.42917 -0.78621,1.07773 -1.07337,1.44125 -0.50262,0.63625 -0.50592,0.61333 -0.0883,-0.61407 0.5462,-1.60535 0.11015,-1.64429 -0.96743,-0.0864 -1.01779,1.47146 -1.55698,1.59369 -0.7119,0.16138 0.45535,-0.77176 0.51269,-1.05 0.21637,-1.05 -0.22174,0 -0.57121,0.2025 -0.77662,0.45 -0.20541,0.2475 -0.5969,0.45 -0.86998,0.45 -0.27308,0 -0.80528,0.21627 -1.18267,0.4806 -0.37738,0.26433 -0.76742,0.39933 -0.86675,0.3 -0.23372,-0.23372 -0.2614,-0.21215 2.0194,-1.57388 1.65713,-0.98937 3.46787,-1.87247 6.45,-3.14568 0.67866,-0.28975 4.37978,-1.15535 5.60075,-1.30987 2.0348,-0.25752 5.21099,-2.77392 6.628,-5.25117 0.8002,-1.39892 1.59883,-3.82603 1.43136,-4.35 -0.0527,-0.165 -0.2033,-0.7725 -0.33457,-1.35 -0.21957,-0.96593 -0.23416,-0.93224 -0.18211,0.42068 0.0366,0.95115 -0.0759,1.51637 -0.31843,1.6 -0.25681,0.0886 -0.37645,-0.23313 -0.37959,-1.02068 -0.003,-0.77162 -0.0907,-1.01404 -0.26633,-0.73678 -0.14395,0.22727 -0.18884,0.95669 -0.0998,1.62092 0.11632,0.86723 0.0645,1.14748 -0.18367,0.99408 -0.19011,-0.1175 -0.35515,-0.71191 -0.36675,-1.32093 -0.0323,-1.69505 -0.53028,-0.28477 -0.56242,1.59271 -0.0341,1.99521 -0.59712,1.19476 -0.63298,-0.9 -0.035,-2.043 -0.52581,-0.9074 -0.58351,1.35 -0.0508,1.98769 -0.54525,1.24036 -0.57891,-0.875 -0.0277,-1.73814 -0.31232,-1.39303 -0.77543,0.9401 l -0.37414,1.8849 -0.0713,-1.35 c -0.0392,-0.7425 -0.0477,-1.4741 -0.0188,-1.62578 0.0289,-0.15168 -0.14058,-0.11558 -0.37652,0.0802 -0.23593,0.19581 -0.53948,1.06241 -0.67455,1.92578 l -0.24558,1.56977 -0.16737,-1.5 -0.16738,-1.5 -0.375,1.01977 c -0.20625,0.56087 -0.375,1.26962 -0.375,1.575 0,0.30538 -0.11687,0.55523 -0.25972,0.55523 -0.14424,0 -0.15005,-0.56689 -0.0131,-1.275 0.35083,-1.81351 0.33015,-1.94041 -0.19423,-1.19175 -0.25686,0.36671 -0.65515,0.66675 -0.88509,0.66675 -0.22995,0 -0.56878,0.23625 -0.75296,0.525 -0.27166,0.42588 -0.30283,0.33401 -0.16509,-0.48658 0.25656,-1.5286 -0.57159,-0.68405 -1.00084,1.02065 -0.39844,1.58233 -0.86091,1.78958 -0.68798,0.30831 0.20202,-1.73038 -0.13898,-1.8933 -0.8213,-0.39238 -0.73991,1.62761 -1.31955,1.9191 -0.89879,0.45198 0.34189,-1.19208 0.34347,-1.12698 -0.0274,-1.12698 -0.16854,0 -0.46021,0.3375 -0.64816,0.75 -0.38689,0.84914 -0.91384,1.02826 -0.66194,0.225 0.097,-0.30927 -0.16359,-0.15518 -0.63415,0.375 -0.77716,0.87563 -0.79309,0.87969 -0.58843,0.15 l 0.21037,-0.75 -0.9025,0.84939 c -0.64091,0.60319 -0.94288,0.73362 -1.0418,0.45 -0.10669,-0.30588 -0.29016,-0.26547 -0.78366,0.17258 -0.64136,0.56932 -0.64405,0.56831 -0.579,-0.2177 0.0493,-0.596 0.36216,-0.93394 1.27553,-1.37789 1.70611,-0.82928 7.23979,-3.02183 8.85542,-3.5087 0.74511,-0.22454 1.96225,-0.8148 2.70475,-1.31168 0.7425,-0.49689 1.50679,-0.90401 1.69842,-0.90472 0.46825,-0.002 3.88487,-3.75543 4.45086,-4.88997 0.2479,-0.49692 0.44123,-1.524 0.42963,-2.2824 -0.0156,-1.01801 -0.0854,-1.22187 -0.26679,-0.77891 -0.13514,0.33 -0.17628,0.97125 -0.0914,1.425 0.094,0.50254 0.0224,0.825 -0.1832,0.825 -0.18563,0 -0.35609,-0.43875 -0.37881,-0.975 -0.0367,-0.86665 -0.0756,-0.81664 -0.35028,0.45 -0.33577,1.54861 -0.95946,1.99019 -0.74475,0.52729 0.21838,-1.48796 -0.18806,-0.67818 -0.57476,1.14511 -0.30403,1.43354 -0.3441,1.50112 -0.25356,0.42766 0.12289,-1.45685 -0.32431,-2.02241 -0.60279,-0.76233 -0.30627,1.38585 -0.4334,1.50238 -0.34068,0.31227 0.15414,-1.97849 -0.39962,-1.26842 -1.11131,1.425 -0.0872,0.33 -0.11258,-0.0412 -0.0564,-0.825 0.11811,-1.64785 -0.19232,-1.85833 -0.66372,-0.45 l -0.32636,0.975 0.16635,-1.125 c 0.26687,-1.80482 -0.41055,-1.32884 -0.85392,0.6 l -0.39651,1.725 -0.16726,-1.35 -0.16726,-1.35 -0.39464,1.4301 c -0.47237,1.71179 -0.84184,2.0752 -0.67735,0.66623 0.19531,-1.67294 -0.11025,-1.87151 -0.80223,-0.52133 -0.80087,1.56263 -1.07621,1.62281 -0.84275,0.18421 l 0.17701,-1.0908 -0.73776,0.69309 c -0.61395,0.57678 -0.73776,0.6088 -0.73776,0.19079 0,-0.65492 -0.48124,-0.64281 -0.90251,0.0227 -0.23625,0.37324 -0.37764,0.41729 -0.4891,0.1524 -0.11678,-0.27752 -0.31057,-0.29031 -0.75938,-0.0501 -0.50215,0.26875 -0.58563,0.23682 -0.5008,-0.19155 0.0661,-0.33355 1.20784,-0.97645 3.25179,-1.83097 1.7325,-0.72432 3.3525,-1.42862 3.6,-1.56513 0.2475,-0.13651 1.53,-0.82465 2.85,-1.52921 2.40731,-1.28493 3.75,-2.28179 3.75,-2.78415 0,-0.14802 0.20374,-0.47287 0.45276,-0.72189 0.24901,-0.24902 0.36714,-0.59129 0.2625,-0.7606 -0.12247,-0.19816 -0.27489,-0.17091 -0.42779,0.0765 -0.15823,0.25603 -0.2794,0.0915 -0.36297,-0.49297 l -0.12544,-0.8773 -0.23828,0.98124 c -0.3342,1.37627 -0.76078,1.50886 -0.76078,0.23647 0,-0.58724 -0.11926,-1.06771 -0.26501,-1.06771 -0.3034,0 -0.62487,1.03182 -0.6309,2.025 -0.002,0.37125 -0.13909,0.675 -0.30409,0.675 -0.165,0 -0.3,-0.48047 -0.3,-1.06771 0,-1.38927 -0.46641,-1.08816 -0.71414,0.46106 -0.23123,1.44601 -0.78095,1.60561 -0.79787,0.23165 l -0.012,-0.975 -0.44757,0.825 c -0.58902,1.08573 -0.74989,1.04181 -0.54939,-0.15 0.15564,-0.92514 0.13992,-0.94522 -0.3075,-0.39266 -0.25933,0.32029 -0.47152,0.82654 -0.47152,1.125 0,0.29846 -0.13757,0.54266 -0.30572,0.54266 -0.18332,0 -0.22345,-0.33029 -0.10023,-0.825 0.18524,-0.74374 0.15625,-0.78445 -0.29429,-0.41327 -0.43018,0.35441 -0.49976,0.34397 -0.49976,-0.075 0,-0.6605 -0.24368,-0.61206 -0.94703,0.18827 l -0.59321,0.675 0.1316,-0.8411 0.13159,-0.84111 -0.75951,0.69111 c -0.57117,0.51972 -0.7142,0.5647 -0.57676,0.18138 0.12877,-0.35914 0.0566,-0.46132 -0.24425,-0.34586 -0.41751,0.16021 -1.54759,-0.68926 -1.27697,-0.95988 0.0753,-0.0753 1.18462,-0.26973 2.46519,-0.43209 3.4119,-0.43258 4.65741,-0.83742 6.2136,-2.01964 1.58681,-1.20549 2.06032,-2.02363 1.83957,-3.17843 -0.17161,-0.8977 -0.67036,-1.09446 -0.70819,-0.27938 -0.016,0.34437 -0.1568,0.22493 -0.40928,-0.34714 -0.26293,-0.59572 -0.43787,-0.73834 -0.55196,-0.45 -0.11331,0.28638 -0.17464,0.30154 -0.19071,0.0471 -0.0397,-0.62819 -0.62368,-0.4175 -0.62368,0.225 0,0.33 -0.135,0.6 -0.3,0.6 -0.165,0 -0.3,-0.2958 -0.3,-0.65734 0,-0.6424 -0.01,-0.6441 -0.44046,-0.075 -0.42948,0.56783 -0.4407,0.5681 -0.45,0.0108 -0.009,-0.55248 -0.0295,-0.55342 -0.60954,-0.0285 -0.34026,0.30793 -0.6,0.39299 -0.6,0.1965 0,-0.19058 -0.432,-0.3465 -0.96,-0.3465 -0.528,0 -0.83175,-0.10847 -0.675,-0.24105 0.28136,-0.23797 3.70833,-1.32553 5.31,-1.68515 0.81545,-0.18309 1.10702,-0.86409 0.52419,-1.2243 -0.20004,-0.12363 -0.19651,-0.38081 0.0106,-0.76771 0.38384,-0.7172 0.0745,-0.75099 -0.67403,-0.0736 -0.5307,0.48028 -0.54973,0.47742 -0.34654,-0.0521 0.1693,-0.4412 0.10829,-0.51932 -0.28709,-0.3676 -0.27615,0.10597 -0.50209,0.0619 -0.50209,-0.0979 0,-0.15982 -0.19826,-0.29058 -0.44058,-0.29058 -0.25837,0 -0.37265,-0.17706 -0.27631,-0.42811 0.11996,-0.3126 -0.004,-0.38411 -0.45941,-0.26501 -0.41532,0.10861 -0.6237,0.0208 -0.6237,-0.26284 0,-0.334 0.40469,-0.40261 1.875,-0.3179 1.03125,0.0594 2.2381,0.24835 2.68189,0.41984 1.14386,0.44203 1.44311,0.12359 1.44311,-1.5356 0,-1.30651 -0.0609,-1.43827 -0.6,-1.2973 -0.33546,0.0877 -0.6,0.009 -0.6,-0.17809 0,-0.18424 -0.243,-0.33499 -0.54,-0.33499 -0.5742,0 -1.26,-0.53999 -1.26,-0.9921 0,-0.14965 0.17135,-0.20634 0.38079,-0.12597 0.20943,0.0804 0.90625,0.0607 1.54849,-0.0437 0.99558,-0.16182 1.21889,-0.3418 1.51488,-1.22091 0.5091,-1.51202 0.94206,-1.44306 1.6778,0.26722 0.60826,1.41394 1.31362,1.9784 2.24738,1.79848 0.15436,-0.0297 0.65191,-0.0381 1.10566,-0.0186 0.93652,0.0403 1.14724,0.63553 0.225,0.63553 -0.33,0 -0.6,0.11606 -0.6,0.25791 0,0.14185 -0.54,0.21944 -1.2,0.17243 -1.05579,-0.0752 -1.20128,-0.007 -1.21063,0.56709 -0.0102,0.62662 -0.0277,0.62274 -0.43937,-0.0974 l -0.42874,-0.75 -0.01,1.05 c -0.0114,1.26175 0.97275,2.99578 1.70884,3.01081 1.05079,0.0215 4.13823,0.33416 4.52342,0.45814 0.70041,0.22543 0.10682,0.63762 -0.83734,0.58145 -0.80164,-0.0477 -0.89222,0.0242 -0.7218,0.57253 0.19252,0.61952 0.18717,0.62019 -0.445,0.0556 -0.582,-0.5198 -0.63987,-0.52498 -0.63987,-0.0573 0,0.28281 -0.135,0.43077 -0.3,0.32879 -0.1655,-0.10228 -0.3,0.11238 -0.3,0.47879 0,0.6452 -0.0172,0.64867 -0.6,0.12121 -0.58236,-0.52703 -0.6,-0.52399 -0.6,0.1035 0,0.8475 -0.46947,0.82973 -0.7531,-0.0285 l -0.22307,-0.675 -0.13508,0.69251 c -0.10929,0.56033 -0.21654,0.6249 -0.56191,0.33827 -0.83602,-0.69383 -0.4656,0.77091 0.39816,1.57445 0.99647,0.927 1.96482,1.19679 4.725,1.31645 1.155,0.0501 2.1592,0.0994 2.23157,0.10968 0.0724,0.0102 -0.15667,0.28717 -0.50896,0.61538 -0.35667,0.33229 -0.84705,0.51749 -1.10657,0.4179 -0.26367,-0.10118 -0.46604,-0.0207 -0.46604,0.18536 0,0.20047 -0.20229,0.28657 -0.45,0.19151 -0.28613,-0.1098 -0.45,0.005 -0.45,0.3144 0,0.43081 -0.0693,0.42435 -0.6,-0.0559 -0.58626,-0.53056 -0.6,-0.52399 -0.6,0.28674 v 0.82973 l -0.59002,-0.70823 -0.59002,-0.70824 -0.0344,0.9 -0.0345,0.9 -0.44883,-1.03 c -0.31558,-0.72421 -0.52019,-0.91453 -0.68921,-0.64105 -0.19465,0.31494 -0.27199,0.31114 -0.40651,-0.02 -0.11483,-0.28268 -0.22779,-0.20695 -0.36587,0.2453 -0.13538,0.44341 -0.35941,0.59836 -0.69519,0.48085 -0.40321,-0.14112 -0.42563,-0.0982 -0.12044,0.23075 0.20625,0.22229 0.375,0.62288 0.375,0.89021 0,0.54189 1.8454,2.13719 2.82057,2.43831 0.34618,0.1069 2.18193,0.7256 4.07943,1.37488 1.8975,0.64928 4.22625,1.4275 5.175,1.72936 0.94875,0.30187 1.725,0.66192 1.725,0.80012 0,0.3493 -0.52509,0.31518 -0.75,-0.0487 -0.35981,-0.58219 -0.7915,-0.30336 -0.57694,0.37265 0.1968,0.62006 0.17111,0.63765 -0.32857,0.225 -0.42688,-0.35253 -0.56977,-0.3653 -0.67245,-0.0601 -0.10656,0.3167 -0.21757,0.3167 -0.60738,0 -0.41254,-0.33515 -0.44904,-0.30644 -0.27009,0.21248 0.19202,0.55685 0.1775,0.56225 -0.20191,0.075 -0.60637,-0.77871 -0.79614,-0.6417 -0.62327,0.45 l 0.15438,0.975 -0.49397,-1.125 c -0.58246,-1.32654 -1.02906,-1.4564 -1.03165,-0.3 l -0.002,0.825 -0.46689,-0.9 c -0.94783,-1.82706 -1.23037,-1.48878 -0.56377,0.675 0.0635,0.20625 -0.005,0.375 -0.15122,0.375 -0.14671,0 -0.35536,-0.40345 -0.46367,-0.89656 -0.2408,-1.09636 -0.76783,-1.51675 -0.57613,-0.45955 0.17861,0.98497 -0.0452,0.95941 -0.60303,-0.0689 -0.37818,-0.69711 -0.45015,-0.73199 -0.46418,-0.225 -0.0138,0.49834 -0.0659,0.52375 -0.30741,0.15 -0.21331,-0.33007 -0.30098,-0.0902 -0.32896,0.9 l -0.0381,1.35 -0.28444,-1.5 c -0.15643,-0.825 -0.40817,-1.62509 -0.55942,-1.77798 -0.16726,-0.16908 -0.22573,-0.0222 -0.14924,0.375 0.0691,0.35914 -0.002,0.65298 -0.15707,0.65298 -0.15552,0 -0.28277,-0.27797 -0.28277,-0.61771 0,-0.33973 -0.135,-0.53427 -0.3,-0.43229 -0.165,0.10198 -0.3,0.50698 -0.3,0.9 0,1.11291 -0.54675,1.17755 -0.68256,0.0807 l -0.12142,-0.98069 -0.048,1.0949 c -0.0423,0.96587 0.14034,1.26703 1.55027,2.55563 1.46045,1.33478 3.15385,2.41676 6.58778,4.20923 1.37576,0.71813 2.98499,1.09209 6.62246,1.53896 1.43269,0.176 2.54724,0.47847 2.83928,0.77051 0.57148,0.57148 0.0522,0.66244 -0.89322,0.15646 -0.79126,-0.42347 -1.01386,-0.17782 -0.39744,0.4386 0.60381,0.60381 0.33833,0.62762 -0.54494,0.0489 -0.36669,-0.24025 -0.97673,-0.41348 -1.35564,-0.38494 -0.58018,0.0437 -0.65886,0.17188 -0.49834,0.81184 l 0.19061,0.75994 -0.77441,-0.72729 c -0.42593,-0.40002 -0.77442,-0.56401 -0.77442,-0.36445 0,0.2718 -0.15298,0.28098 -0.60966,0.0366 -0.55882,-0.29907 -0.59505,-0.25617 -0.43443,0.51444 l 0.17524,0.84073 -0.47516,-0.825 c -0.64213,-1.11492 -1.10519,-1.05566 -0.7057,0.0903 0.42272,1.2126 0.13526,1.4569 -0.34631,0.2943 -0.20722,-0.50029 -0.50336,-0.90962 -0.65808,-0.90962 -0.15472,0 -0.19788,0.135 -0.0959,0.3 0.35625,0.57643 -0.20847,0.29426 -0.75033,-0.3749 -0.54174,-0.66903 -0.54423,-0.66315 -0.28615,0.675 0.38088,1.97487 0.30499,2.73712 -0.13324,1.33823 -0.20877,-0.66641 -0.53313,-1.47641 -0.72081,-1.8 -0.32659,-0.5631 -0.34162,-0.55863 -0.35035,0.10438 -0.0126,0.95827 -0.51645,0.55758 -0.78105,-0.62115 -0.11996,-0.53436 -0.27847,-0.79718 -0.35226,-0.58404 -0.10738,0.31017 -0.22399,0.31297 -0.58417,0.014 -0.37536,-0.31152 -0.43944,-0.27628 -0.38628,0.21248 0.13619,1.2521 -0.0183,2.83595 -0.27656,2.83595 -0.14917,0 -0.27642,-0.67315 -0.28279,-1.49588 -0.006,-0.82274 -0.15889,-1.73399 -0.33892,-2.025 -0.25722,-0.41578 -0.30911,-0.1917 -0.24222,1.04607 0.11013,2.03774 -0.24506,2.03761 -0.52469,-1.9e-4 -0.35515,-2.58823 -0.69968,-3.01819 -0.72116,-0.9 -0.0114,1.12166 -0.14818,1.875 -0.34049,1.875 -0.17681,0 -0.29687,-0.30375 -0.26679,-0.675 0.11398,-1.40712 -0.024,-2.025 -0.45233,-2.025 -0.26191,0 -0.37279,-0.17665 -0.27341,-0.43563 0.0919,-0.2396 0.0585,-0.61085 -0.0742,-0.825 -0.16333,-0.26345 -0.3585,-0.001 -0.60353,0.81063 l -0.36214,1.2 -0.0434,-1.2 c -0.0385,-1.06635 -0.0785,-1.12722 -0.35925,-0.54662 -0.49699,1.02796 0.62877,6.69662 1.32991,6.69662 0.12462,0 0.22746,0.16875 0.22853,0.375 0.003,0.67377 2.43029,3.22719 4.05491,4.26644 1.18132,0.75568 2.49938,1.21862 5.14089,1.80562 4.4394,0.98654 6.33043,1.53486 7.12843,2.06695 0.77101,0.51409 1.85675,2.50889 1.53096,2.81279 -0.1316,0.12276 -0.30256,0.0454 -0.37992,-0.17194 -0.0773,-0.21732 -0.46346,-0.75732 -0.85802,-1.19999 l -0.71739,-0.80486 0.45313,1.125 c 0.24921,0.61875 0.33269,1.125 0.18549,1.125 -0.14719,0 -0.43134,-0.39524 -0.63144,-0.87831 -0.20009,-0.48307 -0.62147,-1.1115 -0.93639,-1.3965 -0.64898,-0.58731 -0.72994,-0.39001 -0.23371,0.56953 0.27346,0.52876 0.15011,0.48152 -0.63888,-0.24472 -0.8207,-0.75543 -0.92163,-0.79157 -0.62833,-0.225 0.48481,0.93648 -0.0859,0.85576 -0.8541,-0.1208 -0.34429,-0.43769 -0.71082,-0.71095 -0.81452,-0.60725 -0.1037,0.1037 -0.0576,0.36056 0.10254,0.5708 0.45,0.59092 1.37773,3.24892 1.19705,3.42961 -0.0885,0.0885 -0.4512,-0.51393 -0.80602,-1.33871 -0.6195,-1.44008 -2.09662,-3.22157 -2.09662,-2.52865 0,0.18402 0.12236,0.41021 0.27192,0.50265 0.30279,0.18713 1.27772,2.86735 1.043,2.86735 -0.0818,0 -0.40951,-0.57375 -0.72834,-1.275 -0.76957,-1.69266 -1.7707,-2.96815 -1.77991,-2.26771 -0.004,0.27902 0.11221,0.58077 0.25751,0.67057 0.1453,0.0898 0.3283,0.49868 0.40666,0.90863 0.0784,0.40994 0.027,0.67397 -0.11418,0.58673 -0.14116,-0.0872 -0.25716,-0.31941 -0.25778,-0.51593 -10e-4,-0.4912 -1.19524,-2.41093 -1.38262,-2.22355 -0.0833,0.0833 0.0369,0.60475 0.26705,1.15883 0.86158,2.07421 0.80818,2.79926 -0.0742,1.00743 -0.88296,-1.79302 -0.88582,-1.79535 -0.73553,-0.6 l 0.15087,1.2 -0.77447,-1.35 -0.77447,-1.35 0.18271,1.2 c 0.1005,0.66 0.2607,1.52389 0.356,1.91975 0.1195,0.49639 0.0666,0.65382 -0.17049,0.50729 -0.18906,-0.11685 -0.35376,-0.57573 -0.366,-1.01975 -0.0122,-0.44401 -0.28014,-1.34729 -0.59535,-2.00729 l -0.57311,-1.2 0.15635,2.025 c 0.10024,1.29827 0.0447,2.025 -0.15465,2.025 -0.17104,0 -0.31099,-0.59871 -0.31099,-1.33047 0,-1.74902 -0.47143,-2.98306 -1.05417,-2.75944 -0.29852,0.11455 -0.44583,-0.0182 -0.44583,-0.4018 0,-1.32751 -0.58147,-0.77406 -1.01414,0.96527 l -0.46677,1.87644 0.12823,-1.80207 c 0.0705,-0.99114 9e-4,-2.00364 -0.15495,-2.25 -0.22796,-0.36058 -0.28408,-0.31976 -0.28778,0.20936 -0.008,1.15389 -0.5636,1.04948 -0.67046,-0.12601 l -0.10284,-1.13128 -0.36444,1.05 -0.36444,1.05 0.12194,-1.07575 c 0.16845,-1.48604 -0.27064,-2.10768 -0.58165,-0.82345 l -0.24197,0.9992 -0.20531,-1.35 c -0.11292,-0.7425 -0.22558,-1.11375 -0.25036,-0.825 -0.0248,0.28875 -0.14631,0.52527 -0.27006,0.5256 -0.44452,0.001 -0.37404,2.24761 0.11714,3.73353 0.44624,1.34994 0.87044,2.1118 2.50786,4.50399 1.52512,2.22814 3.75639,3.38681 11.30314,5.8696 3.70477,1.21883 5.8144,2.06176 5.9252,2.3675 0.0946,0.26113 0.25762,0.66425 0.3622,0.89582 0.10458,0.23157 -0.3005,0.0468 -0.90019,-0.41061 -1.14445,-0.87291 -1.52451,-0.64633 -0.48851,0.29123 0.33101,0.29957 0.53166,0.61485 0.44588,0.70063 -0.0858,0.0858 -0.62926,-0.36075 -1.20772,-0.99229 -1.29815,-1.41725 -1.73096,-1.17921 -0.58579,0.32218 0.46083,0.60418 0.6484,1.03595 0.41683,0.95948 -0.23157,-0.0765 -0.5569,-0.40888 -0.72295,-0.73869 -0.33504,-0.66546 -1.20485,-1.60297 -1.48722,-1.60297 -0.10009,0 -0.0423,0.26091 0.12832,0.5798 0.5831,1.08953 0.89623,2.1202 0.64414,2.1202 -0.1385,0 -0.48329,-0.60611 -0.7662,-1.3469 -0.83531,-2.18721 -1.68781,-2.33744 -0.92033,-0.16218 0.53172,1.50708 0.53197,1.50908 0.18659,1.50908 -0.14664,0 -0.35208,-0.43875 -0.45653,-0.975 -0.10445,-0.53625 -0.46954,-1.3125 -0.81131,-1.725 -0.49861,-0.6018 -0.57786,-0.63144 -0.40105,-0.15 0.1212,0.33 0.26975,1.005 0.33012,1.5 0.0959,0.78657 0.0516,0.74876 -0.352,-0.3 -0.25397,-0.66 -0.73668,-1.47 -1.0727,-1.8 l -0.61095,-0.6 0.44495,1.2 c 0.5202,1.40296 0.86374,2.85 0.67661,2.85 -0.072,0 -0.37141,-0.64125 -0.66536,-1.425 -0.51646,-1.37703 -1.61829,-3.17188 -1.82206,-2.96811 -0.0547,0.0547 0.0984,0.66058 0.34038,1.34631 0.24194,0.68574 0.37363,1.2468 0.29265,1.2468 -0.081,0 -0.0169,0.24353 0.14237,0.54116 0.1593,0.29765 0.18731,0.70672 0.0623,0.90906 -0.13787,0.22307 -0.42007,-0.32524 -0.71692,-1.39293 -0.26925,-0.96844 -0.76045,-2.08626 -1.09156,-2.48404 l -0.60202,-0.72325 0.27058,0.98079 c 0.16708,0.60562 0.16321,0.91442 -0.0101,0.80729 -0.15439,-0.0954 -0.28501,-0.33427 -0.29026,-0.53079 -0.005,-0.19651 -0.22462,-0.62729 -0.48749,-0.95729 -0.46538,-0.58422 -0.47241,-0.58027 -0.26718,0.15 0.48806,1.73668 0.66658,3 0.42393,3 -0.14284,0 -0.25971,-0.33799 -0.25971,-0.75109 0,-0.4131 -0.27738,-1.25685 -0.6164,-1.875 l -0.61639,-1.12391 0.18368,1.2 c 0.10102,0.66 0.23981,1.5375 0.30842,1.95 0.1073,0.64511 0.0882,0.66609 -0.13653,0.15 -0.1437,-0.33 -0.43968,-1.2075 -0.65775,-1.95 l -0.39648,-1.35 -0.16415,1.5 -0.16416,1.5 -0.23761,-1.35 c -0.1307,-0.7425 -0.42129,-1.755 -0.64576,-2.25 -0.39687,-0.87514 -0.40881,-0.84684 -0.4325,1.025 -0.026,2.05065 -0.21374,2.30867 -0.44417,0.61034 -0.42406,-3.12532 -1.18114,-4.49603 -0.91112,-1.64958 0.10036,1.05793 0.0437,1.66424 -0.1556,1.66424 -0.17241,0 -0.32694,-0.57375 -0.34338,-1.275 -0.0164,-0.70125 -0.13799,-1.6125 -0.2701,-2.025 -0.22323,-0.69703 -0.24442,-0.67584 -0.3,0.3 -0.0329,0.5775 -0.1679,1.3875 -0.3,1.8 -0.2304,0.71943 -0.24294,0.71026 -0.3076,-0.225 -0.0371,-0.53625 -0.10115,-1.11 -0.1424,-1.275 -0.0412,-0.165 -0.10965,-0.87375 -0.15199,-1.575 l -0.077,-1.275 -0.22102,1.05 c -0.20045,0.95228 -0.42401,0.6439 -0.3806,-0.525 0.008,-0.20625 -0.10607,-0.375 -0.25273,-0.375 -0.14667,0 -0.26667,0.59306 -0.26667,1.3179 0,0.87965 -0.14589,1.37389 -0.43871,1.48625 -0.6409,0.24594 -0.28366,5.87174 0.40883,6.43831 0.60166,0.49226 3.0288,1.65346 3.62988,1.73663 0.2475,0.0342 1.10754,0.15367 1.91119,0.26539 2.46623,0.34286 1.1396,0.82344 -2.56453,0.92902 -1.86816,0.0532 -3.51728,0.1035 -3.6647,0.11166 -0.55911,0.031 0.52916,10.18347 1.13481,10.58669 0.18328,0.12202 0.50198,0.16 0.70823,0.0844 0.45138,-0.16542 0.45661,-0.10997 0.0824,0.87421 -0.38582,1.01479 0.0737,0.98692 0.9145,-0.0555 0.61058,-0.75695 0.65181,-0.76932 0.49986,-0.15 -0.18254,0.74403 0.0637,0.8695 0.61822,0.315 0.28,-0.28 0.36,-0.27551 0.36,0.0202 0,0.25114 0.2164,0.31153 0.63745,0.1779 0.37717,-0.11971 0.72825,-0.0554 0.8598,0.15743 0.17113,0.2769 0.36664,0.26964 0.8489,-0.0315 0.71667,-0.44757 1.31627,-0.0938 0.64516,0.38061 -0.3427,0.24227 -0.30724,0.26266 0.15869,0.0912 1.17925,-0.43382 2.34504,-0.53236 2.12715,-0.17979 -0.14743,0.23854 0.21179,0.29176 1.23238,0.18258 1.11527,-0.11931 1.28808,-0.0868 0.76547,0.14395 -1.14285,0.50464 -0.74787,0.61063 0.67726,0.18172 0.74375,-0.22383 1.64946,-0.32926 2.01269,-0.23427 0.56939,0.1489 0.49672,0.22646 -0.52727,0.56266 l -1.18768,0.38996 1.05,-0.14024 c 2.88615,-0.38547 3.4201,-0.43225 3.075,-0.2694 -0.7713,0.36397 -0.33134,0.57781 0.975,0.47391 0.84736,-0.0674 1.35,0.0156 1.35,0.22284 0,0.18162 -0.23625,0.3317 -0.525,0.33351 -0.28875,0.002 -0.9975,0.056 -1.575,0.12045 -0.5775,0.0644 -2.0625,0.003 -3.3,-0.13586 z m -18.07843,-3.43793 c -0.17714,-0.5772 -0.37567,-0.99586 -0.44117,-0.93036 -0.22228,0.22228 0.28389,2.27608 0.52432,2.12748 0.13142,-0.0812 0.094,-0.61992 -0.0831,-1.19712 z m 0.37843,-11.24996 c 0,-0.165 -0.135,-0.3 -0.3,-0.3 -0.165,0 -0.3,0.135 -0.3,0.3 0,0.165 0.135,0.3 0.3,0.3 0.165,0 0.3,-0.135 0.3,-0.3 z m 5.39797,-1.09347 c -1.20115,-0.50504 -1.88607,-0.52084 -1.72573,-0.0398 0.1477,0.44308 1.36559,0.77686 2.13517,0.58518 0.44824,-0.11165 0.36804,-0.21847 -0.40944,-0.54538 z m -1.06078,-10.5858 c 0.0949,-0.1536 0.0579,-0.35016 -0.0823,-0.4368 -0.14019,-0.0867 -0.25489,0.039 -0.25489,0.27927 0,0.50585 0.0946,0.55004 0.33719,0.15753 z m -2.93226,-8.77698 c -0.0958,-0.23932 -0.16685,-0.16823 -0.18125,0.18125 -0.013,0.31625 0.0579,0.49344 0.15757,0.39375 0.0997,-0.0997 0.11034,-0.35844 0.0237,-0.575 z m 1.35507,-10.50375 c -0.28,-0.28 -0.36,-0.2 -0.36,0.36 0,0.56 0.08,0.64 0.36,0.36 0.28,-0.28 0.28,-0.44 0,-0.72 z m 1.64493,-2.09625 c -0.0958,-0.23932 -0.16685,-0.16823 -0.18125,0.18125 -0.013,0.31625 0.0579,0.49344 0.15757,0.39375 0.0997,-0.0997 0.11034,-0.35844 0.0237,-0.575 z m 0.39048,-5.86875 c -0.002,-0.12375 -0.13546,-0.4275 -0.29541,-0.675 -0.23516,-0.36389 -0.29169,-0.32083 -0.29541,0.225 -0.002,0.37125 0.13041,0.675 0.29541,0.675 0.165,0 0.29793,-0.10125 0.29541,-0.225 z m -2.09541,-6.225 c -0.20541,-0.2475 -0.50847,-0.45 -0.67347,-0.45 -0.16735,0 -0.13486,0.19898 0.0735,0.45 0.20541,0.2475 0.50847,0.45 0.67347,0.45 0.16735,0 0.13486,-0.19898 -0.0735,-0.45 z m 0.6,-1.78229 c 0,-0.0728 -0.135,-0.21573 -0.3,-0.31771 -0.165,-0.10198 -0.3,-0.0424 -0.3,0.13229 0,0.17474 0.135,0.31771 0.3,0.31771 0.165,0 0.3,-0.0595 0.3,-0.13229 z m -2.55,-6.46771 c 0.10198,-0.165 0.0424,-0.3 -0.13229,-0.3 -0.17474,0 -0.31771,0.135 -0.31771,0.3 0,0.165 0.0595,0.3 0.13229,0.3 0.0728,0 0.21573,-0.135 0.31771,-0.3 z m -16.5114,67.81844 c 0.0957,-0.15486 0.45944,-0.22659 0.8083,-0.15941 1.03378,0.19909 1.02577,0.44097 -0.0146,0.44097 -0.53224,0 -0.8894,-0.1267 -0.7937,-0.28156 z m 2.31125,-0.28128 c -0.33354,-0.21143 -0.33354,-0.27822 0,-0.40122 0.50782,-0.18726 1.15015,0.03 1.15015,0.38906 0,0.34264 -0.61849,0.34918 -1.15015,0.0122 z m 1.61744,-0.30918 c -0.0925,-0.14961 0.10207,-0.20137 0.4323,-0.11501 0.70049,0.18318 0.78904,0.38703 0.16812,0.38703 -0.23777,0 -0.50795,-0.12241 -0.60042,-0.27202 z m 1.25771,-0.1456 c -0.68937,-0.5233 -0.67041,-0.86896 0.0354,-0.64496 0.3082,0.0978 0.9115,0.0444 1.34067,-0.11881 0.65357,-0.24849 0.85377,-0.19177 1.23272,0.34926 0.58822,0.8398 0.38163,1.01702 -0.48112,0.41273 -0.86457,-0.60557 -1.34411,-0.62278 -0.85265,-0.0306 0.30952,0.37295 0.27728,0.44836 -0.18827,0.44046 -0.30895,-0.005 -0.79798,-0.18888 -1.08673,-0.40808 z m 3.38956,0.0122 c -0.41828,-0.41828 -0.40137,-1.09456 0.0274,-1.09456 0.18806,0 0.53558,0.23625 0.77226,0.525 0.39903,0.4868 0.41986,0.4759 0.28624,-0.1497 -0.18259,-0.8549 0.26363,-1.15808 0.67201,-0.45661 0.27677,0.47541 0.31027,0.47871 0.31844,0.0313 0.0126,-0.69203 0.67724,-0.85085 1.15637,-0.27633 0.21848,0.26198 0.30811,0.30167 0.19917,0.0882 -0.10894,-0.21348 -0.0296,-0.59112 0.17627,-0.8392 0.30017,-0.36169 0.42327,-0.37395 0.62123,-0.0619 0.18366,0.28952 0.24807,0.25474 0.25149,-0.1358 0.008,-0.87893 0.51745,-0.58569 0.71709,0.4125 0.29331,1.46655 0.22745,1.80516 -0.3375,1.73525 -0.28875,-0.0357 -0.7275,0.0131 -0.975,0.10856 -0.8915,0.34375 -3.57667,0.42202 -3.88544,0.11325 z m 9.15151,-1.16956 c 0.11358,-0.37125 0.32107,-0.8775 0.46109,-1.125 0.20019,-0.35383 0.25654,-0.31099 0.26372,0.20046 0.0121,0.86007 -0.28529,1.59954 -0.64319,1.59954 -0.15998,0 -0.19628,-0.30021 -0.0816,-0.675 z m 12.1813,-16.425 c 0,-0.4125 0.0681,-0.58125 0.15131,-0.375 0.0832,0.20625 0.0832,0.54375 0,0.75 -0.0832,0.20625 -0.15131,0.0375 -0.15131,-0.375 z m -17.95747,-2.1 c 0,-0.9075 0.0562,-1.27875 0.12498,-0.825 0.0687,0.45375 0.0687,1.19625 0,1.65 -0.0687,0.45375 -0.12498,0.0825 -0.12498,-0.825 z m 27.0601,-6.6 c -0.10198,-0.165 -0.0424,-0.3 0.13229,-0.3 0.17474,0 0.31771,0.135 0.31771,0.3 0,0.165 -0.0595,0.3 -0.13229,0.3 -0.0728,0 -0.21573,-0.135 -0.31771,-0.3 z m -36.75,-0.28229 c 0,-0.15527 0.13345,-0.36478 0.29656,-0.46559 0.17006,-0.1051 0.22036,0.0153 0.11791,0.2823 -0.19944,0.51972 -0.41447,0.61481 -0.41447,0.18329 z m 27.46281,-0.59698 c -0.0949,-0.1536 -0.0354,-0.36407 0.1323,-0.46771 0.16769,-0.10363 0.30489,0.022 0.30489,0.27927 0,0.52696 -0.18002,0.60455 -0.43719,0.18844 z m 6.63719,0.0793 c -0.11,-0.11 -0.19144,-0.48125 -0.18098,-0.825 0.0175,-0.57468 0.0421,-0.56714 0.30644,0.0935 0.29379,0.73447 0.23285,1.08976 -0.12546,0.73145 z m -11.3,-2.05 c 0,-0.4125 0.11628,-0.75 0.2584,-0.75 0.14212,0 0.19388,0.3375 0.11503,0.75 -0.0789,0.4125 -0.19514,0.75 -0.2584,0.75 -0.0633,0 -0.11503,-0.3375 -0.11503,-0.75 z m -28.8,-7.31501 c 0,-0.14576 0.30375,-0.34641 0.675,-0.4459 1.0862,-0.2911 1.31631,-0.20125 0.69266,0.27045 -0.64824,0.4903 -1.36766,0.58259 -1.36766,0.17545 z m 11.70459,-0.99228 c -0.003,-0.27902 0.13041,-0.59073 0.29541,-0.69271 0.37968,-0.23465 0.37968,0.16249 0,0.75 -0.25062,0.38781 -0.29145,0.37989 -0.29541,-0.0573 z m 18.79541,-2.54271 c -0.11,-0.11 -0.2,-0.74 -0.2,-1.4 0,-1.49715 0.27466,-1.28707 0.47345,0.36212 0.14911,1.23711 0.10254,1.41387 -0.27345,1.03788 z m -4.65783,-2.5 c 0,-0.2475 0.11602,-0.72 0.25783,-1.05 0.16252,-0.37819 0.25783,-0.43364 0.25783,-0.15 0,0.2475 -0.11602,0.72 -0.25783,1.05 -0.16252,0.37819 -0.25783,0.43364 -0.25783,0.15 z m 0.43271,-8.65974 c -0.12923,-0.2091 -0.15394,-0.4612 -0.0549,-0.56022 0.26849,-0.26849 0.56123,0.12639 0.41621,0.56144 -0.10161,0.30485 -0.17228,0.30461 -0.36129,-0.001 z"
       id="path4203"
       inkscape:connector-curvature="0" />
  </g>
</svg>
